<?xml version="1.0" encoding="UTF-8" standalone="no"?>
<!DOCTYPE svg PUBLIC "-//W3C//DTD SVG 1.1//EN" "http://www.w3.org/Graphics/SVG/1.1/DTD/svg11.dtd">
<svg width="100%" height="100%" viewBox="0 0 500 800" version="1.1" xmlns="http://www.w3.org/2000/svg" xmlns:xlink="http://www.w3.org/1999/xlink" xml:space="preserve" xmlns:serif="http://www.serif.com/" style="fill-rule:evenodd;clip-rule:evenodd;stroke-linecap:round;stroke-linejoin:round;stroke-miterlimit:1.5;">
    <g id="sneakers" transform="matrix(1,0,0,1,18.5596,651.097)">
        <g id="sneaker-right" transform="matrix(0.376702,0,0,0.376702,291.783,-7.36687)">
            <g id="shoes-color" transform="matrix(1,0,0,1,-10.3994,144.619)">
                <path d="M64.278,62.234L83.508,68.834L138.355,69.148L153.676,58.996L198.349,29.052L205.35,21.09L226.463,27.41L296.209,61.94L342.116,84.518L388.689,96.65L425.483,100.399L481.255,113.721L494.466,133.024L498.878,166.698L491.722,185.465L408.846,217.076L313.914,216.194L99.472,210.836L4.597,208.318L5.797,185.793L12.447,143.811L25.264,74.85L32.607,55.544L50.221,56.405L64.278,62.234Z" style="fill:white;stroke:black;stroke-width:2.65px;"/>
            </g>
            <g transform="matrix(0.985026,0,0,1,-9.80813,2.7063)">
                <path d="M509.41,285.857L500.866,265.896C500.804,265.751 500.718,265.622 500.649,265.481C499.244,261.918 496.975,258.385 493.649,255.032C479.817,241.091 450.375,233.427 401.002,233.532C400.696,233.532 400.386,233.534 400.078,233.535C398.863,233.54 397.641,233.548 396.402,233.562C395.561,233.571 394.71,233.584 393.858,233.598C393.143,233.61 392.429,233.621 391.707,233.636C390.329,233.663 388.934,233.698 387.528,233.736C387.399,233.74 387.275,233.741 387.146,233.745L348.048,215.347L348.297,214.932C350.722,210.891 349.411,205.649 345.37,203.224C341.329,200.799 336.087,202.11 333.662,206.151L332.527,208.044L313.444,199.064L314.163,197.865C316.588,193.824 315.277,188.582 311.236,186.157C307.195,183.732 301.953,185.043 299.528,189.084L297.922,191.76L278.839,182.781L280.029,180.798C282.454,176.757 281.143,171.515 277.102,169.09C273.061,166.665 267.819,167.976 265.394,172.017L263.318,175.477L244.235,166.498L245.895,163.732C248.32,159.691 247.009,154.449 242.968,152.024C238.927,149.599 233.685,150.91 231.26,154.951L228.714,159.195L205.962,148.489C202.064,146.655 197.409,148.014 195.111,151.658C194.585,152.492 193.688,153.784 192.445,155.424C192.378,155.506 192.308,155.581 192.243,155.667C191.563,156.563 190.863,157.456 190.15,158.346C189.93,158.618 189.708,158.891 189.475,159.174C189.414,159.249 189.35,159.323 189.289,159.398C184.357,165.354 178.484,171.322 171.705,176.889C167.67,180.202 163.522,183.209 159.272,185.927C153.943,189.252 148.249,192.226 142.174,194.706C113.891,206.252 82.113,205.183 46.418,187.607C46.117,187.458 45.818,187.317 45.516,187.166C44.712,186.765 43.904,186.344 43.096,185.926C42.317,185.522 41.537,185.113 40.755,184.693C40.094,184.339 39.432,183.984 38.768,183.619C37.55,182.948 36.327,182.259 35.098,181.55C34.851,181.408 34.607,181.274 34.36,181.13C33.171,180.438 31.906,180.081 30.651,179.995C23.758,178.24 17.065,168.432 17.065,159.34C17.065,154.627 13.245,150.807 8.532,150.807C3.819,150.807 -0.001,154.628 -0.001,159.34C-0.001,173.444 8.419,187.936 20.315,194.18C19.749,197.183 19.137,200.419 18.487,203.849C16.081,216.539 13.649,229.228 11.346,241.068C11.023,242.729 11.023,242.729 10.699,244.388C5.399,271.545 1.572,289.978 0.464,293.394C0.248,294.021 0.104,294.681 0.041,295.367C0.028,295.497 0.027,295.625 0.02,295.755C0.013,295.893 -0.002,296.029 -0.002,296.168L-0.002,347.069C-0.002,351.709 3.705,355.499 8.344,355.6C9.222,355.619 9.222,355.619 13.398,355.712C19.112,355.839 22.3,355.91 27.685,356.031C43.071,356.377 60.216,356.769 78.68,357.198C131.433,358.424 184.186,359.706 233.42,360.979C259.371,361.65 283.683,362.303 306.059,362.931C320.766,363.344 334.573,363.744 347.414,364.132C417.897,366.267 466.158,353.412 496.517,331.58C510.725,321.348 515.591,302.632 509.41,285.857ZM40.279,203.602C41.5,204.193 42.717,204.761 43.931,205.317C43.942,205.322 43.953,205.327 43.965,205.332C91.285,227.018 133.007,222.764 167.929,200.659C172.337,197.934 176.525,195.01 180.466,191.906L148.305,295.542C131.736,294.85 115.182,294.067 98.76,293.208C75.544,291.994 53.765,290.693 34.054,289.393C28.626,289.035 23.664,288.697 19.206,288.385C21.142,279.548 23.914,265.79 27.452,247.664C27.777,246 27.777,246 28.101,244.333C30.41,232.463 32.846,219.749 35.257,207.035C35.61,205.176 35.951,203.372 36.28,201.631C37.241,202.122 38.193,202.576 39.15,203.046C39.526,203.23 39.903,203.421 40.279,203.602ZM392.313,250.696C392.979,250.683 393.642,250.67 394.3,250.659C394.999,250.648 395.703,250.636 396.393,250.628C396.94,250.621 397.476,250.618 398.017,250.614C444.739,250.235 471.01,256.812 481.174,267.057C484.395,270.304 485.267,273.208 484.945,275.778C474.653,285.286 439.249,292.474 385.089,296.026L392.313,250.696ZM208.589,209.327C212.63,211.752 217.872,210.441 220.297,206.4L235.412,181.209L254.495,190.188L239.796,214.686C237.371,218.727 238.682,223.969 242.723,226.394C246.764,228.819 252.006,227.508 254.431,223.467L270.016,197.492L289.099,206.471L273.93,231.753C271.505,235.794 272.816,241.036 276.857,243.461C280.898,245.886 286.14,244.575 288.565,240.534L304.62,213.775L323.703,222.754L308.064,248.819C305.639,252.86 306.95,258.102 310.991,260.527C315.032,262.952 320.274,261.641 322.699,257.6L339.225,230.058L375.595,247.172L367.651,297.02C334.708,298.591 295.941,299.091 252.466,298.516C224.575,298.147 195.561,297.367 165.956,296.251L205.957,167.349L219.892,173.906L205.663,197.62C203.237,201.66 204.548,206.902 208.589,209.327ZM486.549,317.732C459.437,337.229 414.857,349.104 347.932,347.076C335.077,346.688 321.258,346.288 306.54,345.874C284.15,345.246 259.826,344.593 233.863,343.921C184.612,342.647 131.845,341.365 79.078,340.139C60.61,339.71 43.461,339.318 28.07,338.972C23.806,338.876 20.92,338.811 17.066,338.726L17.066,305.347C21.779,305.679 27.065,306.04 32.891,306.425C52.649,307.73 74.476,309.034 97.746,310.252C150.771,313.026 203.206,314.934 252.241,315.582C264.24,315.741 275.842,315.825 287.058,315.836L287.216,315.836C289.014,315.838 290.802,315.837 292.58,315.835C292.698,315.835 292.815,315.835 292.933,315.834C294.678,315.831 296.413,315.827 298.138,315.821C298.247,315.821 298.354,315.82 298.463,315.82C309.315,315.779 319.777,315.662 329.835,315.466C329.877,315.465 329.919,315.464 329.961,315.464C331.354,315.437 332.735,315.407 334.112,315.376C334.493,315.368 334.877,315.36 335.258,315.351C336.496,315.323 337.724,315.293 338.949,315.262C339.447,315.25 339.946,315.237 340.441,315.224C341.588,315.194 342.728,315.163 343.864,315.131C344.439,315.115 345.014,315.098 345.587,315.082C346.663,315.05 347.734,315.017 348.8,314.984C349.413,314.965 350.025,314.945 350.635,314.925C351.66,314.891 352.682,314.857 353.698,314.821C354.346,314.798 354.991,314.775 355.636,314.751C356.611,314.715 357.585,314.679 358.551,314.642C359.221,314.616 359.885,314.589 360.55,314.562C361.49,314.524 362.431,314.486 363.363,314.446C364.031,314.418 364.691,314.388 365.354,314.358C366.275,314.317 367.197,314.277 368.109,314.234C368.79,314.202 369.462,314.169 370.138,314.136C371.017,314.094 371.899,314.052 372.77,314.008C373.523,313.97 374.265,313.929 375.011,313.89C376.354,313.819 377.687,313.746 379.011,313.671C379.938,313.618 380.867,313.566 381.784,313.512C382.399,313.475 383.005,313.437 383.616,313.399C384.507,313.344 385.399,313.29 386.28,313.233C386.908,313.193 387.527,313.151 388.15,313.109C388.999,313.053 389.849,312.996 390.69,312.938C391.314,312.895 391.931,312.85 392.55,312.806C393.386,312.746 394.222,312.686 395.049,312.625C395.646,312.581 396.239,312.535 396.831,312.49C397.668,312.426 398.501,312.361 399.328,312.295C399.904,312.249 400.476,312.202 401.047,312.156C401.885,312.087 402.718,312.017 403.547,311.946C404.092,311.899 404.636,311.852 405.177,311.805C406.03,311.73 406.876,311.654 407.719,311.577C408.22,311.531 408.722,311.485 409.219,311.439C410.107,311.356 410.986,311.27 411.862,311.185C412.304,311.142 412.749,311.099 413.188,311.055C414.135,310.96 415.072,310.863 416.005,310.765C416.363,310.727 416.725,310.691 417.081,310.653C418.218,310.532 419.343,310.408 420.459,310.282C420.598,310.266 420.741,310.251 420.88,310.235C423.464,309.941 425.99,309.635 428.458,309.317C428.557,309.304 428.654,309.291 428.753,309.278C429.857,309.135 430.951,308.989 432.032,308.841C432.282,308.807 432.527,308.771 432.776,308.737C433.707,308.608 434.632,308.477 435.546,308.344C435.837,308.302 436.124,308.258 436.413,308.216C437.273,308.089 438.127,307.96 438.97,307.83C439.283,307.781 439.594,307.732 439.905,307.683C440.717,307.555 441.522,307.426 442.319,307.295C442.636,307.243 442.951,307.19 443.266,307.138C444.054,307.006 444.834,306.873 445.608,306.738C445.909,306.685 446.21,306.633 446.509,306.58C447.296,306.44 448.074,306.299 448.845,306.155C449.115,306.105 449.387,306.055 449.655,306.004C450.465,305.851 451.265,305.696 452.058,305.539C452.273,305.496 452.491,305.454 452.706,305.412C453.579,305.237 454.44,305.06 455.292,304.88C455.418,304.853 455.548,304.827 455.674,304.801C459.652,303.956 463.394,303.058 466.896,302.106C467.015,302.074 467.13,302.041 467.248,302.008C467.985,301.806 468.713,301.602 469.428,301.395C469.603,301.344 469.774,301.293 469.948,301.242C470.599,301.051 471.243,300.859 471.876,300.664C472.076,300.603 472.272,300.54 472.47,300.479C473.07,300.291 473.663,300.102 474.246,299.91C474.451,299.843 474.654,299.775 474.857,299.707C475.426,299.517 475.987,299.325 476.539,299.131C476.738,299.061 476.936,298.992 477.133,298.921C477.683,298.725 478.223,298.526 478.757,298.326C478.941,298.257 479.126,298.188 479.308,298.119C479.856,297.91 480.393,297.698 480.923,297.485C481.077,297.423 481.233,297.362 481.385,297.3C481.956,297.067 482.513,296.831 483.063,296.594C483.164,296.55 483.269,296.507 483.369,296.463C485.344,295.599 487.182,294.703 488.879,293.775C488.924,293.75 488.967,293.725 489.012,293.7C489.515,293.423 490.007,293.143 490.485,292.86C490.611,292.786 490.73,292.71 490.854,292.635C491.245,292.399 491.631,292.162 492.004,291.923C492.156,291.826 492.302,291.727 492.451,291.629C492.677,291.48 492.91,291.333 493.129,291.183L493.552,292.169C497.023,301.602 494.277,312.164 486.549,317.732Z" style="fill-rule:nonzero;"/>
            </g>
        </g>
        <g id="sneaker-left" transform="matrix(-0.372156,0,0,0.372019,170.869,-6.04287)">
            <g id="shoes-color1" serif:id="shoes-color" transform="matrix(1,0,0,1,0,141.021)">
                <path d="M64.278,62.234L83.508,68.834L138.355,69.148L153.676,58.996L198.349,29.052L205.35,21.09L226.463,27.41L296.209,61.94L342.116,84.518L388.689,96.65L425.483,100.399L481.255,113.721L494.466,133.024L498.878,166.698L491.722,185.465L408.846,217.076L313.914,216.194L99.472,210.836L4.597,208.318L5.797,185.793L12.447,143.811L25.264,74.85L32.607,55.544L50.221,56.405L64.278,62.234Z" style="fill:white;stroke:black;stroke-width:2.69px;"/>
            </g>
            <g transform="matrix(1,0,0,1,-12.3671,1.93307)">
                <path d="M509.41,285.857L500.866,265.896C500.804,265.751 500.718,265.622 500.649,265.481C499.244,261.918 496.975,258.385 493.649,255.032C479.817,241.091 450.375,233.427 401.002,233.532C400.696,233.532 400.386,233.534 400.078,233.535C398.863,233.54 397.641,233.548 396.402,233.562C395.561,233.571 394.71,233.584 393.858,233.598C393.143,233.61 392.429,233.621 391.707,233.636C390.329,233.663 388.934,233.698 387.528,233.736C387.399,233.74 387.275,233.741 387.146,233.745L348.048,215.347L348.297,214.932C350.722,210.891 349.411,205.649 345.37,203.224C341.329,200.799 336.087,202.11 333.662,206.151L332.527,208.044L313.444,199.064L314.163,197.865C316.588,193.824 315.277,188.582 311.236,186.157C307.195,183.732 301.953,185.043 299.528,189.084L297.922,191.76L278.839,182.781L280.029,180.798C282.454,176.757 281.143,171.515 277.102,169.09C273.061,166.665 267.819,167.976 265.394,172.017L263.318,175.477L244.235,166.498L245.895,163.732C248.32,159.691 247.009,154.449 242.968,152.024C238.927,149.599 233.685,150.91 231.26,154.951L228.714,159.195L205.962,148.489C202.064,146.655 197.409,148.014 195.111,151.658C194.585,152.492 193.688,153.784 192.445,155.424C192.378,155.506 192.308,155.581 192.243,155.667C191.563,156.563 190.863,157.456 190.15,158.346C189.93,158.618 189.708,158.891 189.475,159.174C189.414,159.249 189.35,159.323 189.289,159.398C184.357,165.354 178.484,171.322 171.705,176.889C167.67,180.202 163.522,183.209 159.272,185.927C153.943,189.252 148.249,192.226 142.174,194.706C113.891,206.252 82.113,205.183 46.418,187.607C46.117,187.458 45.818,187.317 45.516,187.166C44.712,186.765 43.904,186.344 43.096,185.926C42.317,185.522 41.537,185.113 40.755,184.693C40.094,184.339 39.432,183.984 38.768,183.619C37.55,182.948 36.327,182.259 35.098,181.55C34.851,181.408 34.607,181.274 34.36,181.13C33.171,180.438 31.906,180.081 30.651,179.995C23.758,178.24 17.065,168.432 17.065,159.34C17.065,154.627 13.245,150.807 8.532,150.807C3.819,150.807 -0.001,154.628 -0.001,159.34C-0.001,173.444 8.419,187.936 20.315,194.18C19.749,197.183 19.137,200.419 18.487,203.849C16.081,216.539 13.649,229.228 11.346,241.068C11.023,242.729 11.023,242.729 10.699,244.388C5.399,271.545 1.572,289.978 0.464,293.394C0.248,294.021 0.104,294.681 0.041,295.367C0.028,295.497 0.027,295.625 0.02,295.755C0.013,295.893 -0.002,296.029 -0.002,296.168L-0.002,347.069C-0.002,351.709 3.705,355.499 8.344,355.6C9.222,355.619 9.222,355.619 13.398,355.712C19.112,355.839 22.3,355.91 27.685,356.031C43.071,356.377 60.216,356.769 78.68,357.198C131.433,358.424 184.186,359.706 233.42,360.979C259.371,361.65 283.683,362.303 306.059,362.931C320.766,363.344 334.573,363.744 347.414,364.132C417.897,366.267 466.158,353.412 496.517,331.58C510.725,321.348 515.591,302.632 509.41,285.857ZM40.279,203.602C41.5,204.193 42.717,204.761 43.931,205.317C43.942,205.322 43.953,205.327 43.965,205.332C91.285,227.018 133.007,222.764 167.929,200.659C172.337,197.934 176.525,195.01 180.466,191.906L148.305,295.542C131.736,294.85 115.182,294.067 98.76,293.208C75.544,291.994 53.765,290.693 34.054,289.393C28.626,289.035 23.664,288.697 19.206,288.385C21.142,279.548 23.914,265.79 27.452,247.664C27.777,246 27.777,246 28.101,244.333C30.41,232.463 32.846,219.749 35.257,207.035C35.61,205.176 35.951,203.372 36.28,201.631C37.241,202.122 38.193,202.576 39.15,203.046C39.526,203.23 39.903,203.421 40.279,203.602ZM392.313,250.696C392.979,250.683 393.642,250.67 394.3,250.659C394.999,250.648 395.703,250.636 396.393,250.628C396.94,250.621 397.476,250.618 398.017,250.614C444.739,250.235 471.01,256.812 481.174,267.057C484.395,270.304 485.267,273.208 484.945,275.778C474.653,285.286 439.249,292.474 385.089,296.026L392.313,250.696ZM208.589,209.327C212.63,211.752 217.872,210.441 220.297,206.4L235.412,181.209L254.495,190.188L239.796,214.686C237.371,218.727 238.682,223.969 242.723,226.394C246.764,228.819 252.006,227.508 254.431,223.467L270.016,197.492L289.099,206.471L273.93,231.753C271.505,235.794 272.816,241.036 276.857,243.461C280.898,245.886 286.14,244.575 288.565,240.534L304.62,213.775L323.703,222.754L308.064,248.819C305.639,252.86 306.95,258.102 310.991,260.527C315.032,262.952 320.274,261.641 322.699,257.6L339.225,230.058L375.595,247.172L367.651,297.02C334.708,298.591 295.941,299.091 252.466,298.516C224.575,298.147 195.561,297.367 165.956,296.251L205.957,167.349L219.892,173.906L205.663,197.62C203.237,201.66 204.548,206.902 208.589,209.327ZM486.549,317.732C459.437,337.229 414.857,349.104 347.932,347.076C335.077,346.688 321.258,346.288 306.54,345.874C284.15,345.246 259.826,344.593 233.863,343.921C184.612,342.647 131.845,341.365 79.078,340.139C60.61,339.71 43.461,339.318 28.07,338.972C23.806,338.876 20.92,338.811 17.066,338.726L17.066,305.347C21.779,305.679 27.065,306.04 32.891,306.425C52.649,307.73 74.476,309.034 97.746,310.252C150.771,313.026 203.206,314.934 252.241,315.582C264.24,315.741 275.842,315.825 287.058,315.836L287.216,315.836C289.014,315.838 290.802,315.837 292.58,315.835C292.698,315.835 292.815,315.835 292.933,315.834C294.678,315.831 296.413,315.827 298.138,315.821C298.247,315.821 298.354,315.82 298.463,315.82C309.315,315.779 319.777,315.662 329.835,315.466C329.877,315.465 329.919,315.464 329.961,315.464C331.354,315.437 332.735,315.407 334.112,315.376C334.493,315.368 334.877,315.36 335.258,315.351C336.496,315.323 337.724,315.293 338.949,315.262C339.447,315.25 339.946,315.237 340.441,315.224C341.588,315.194 342.728,315.163 343.864,315.131C344.439,315.115 345.014,315.098 345.587,315.082C346.663,315.05 347.734,315.017 348.8,314.984C349.413,314.965 350.025,314.945 350.635,314.925C351.66,314.891 352.682,314.857 353.698,314.821C354.346,314.798 354.991,314.775 355.636,314.751C356.611,314.715 357.585,314.679 358.551,314.642C359.221,314.616 359.885,314.589 360.55,314.562C361.49,314.524 362.431,314.486 363.363,314.446C364.031,314.418 364.691,314.388 365.354,314.358C366.275,314.317 367.197,314.277 368.109,314.234C368.79,314.202 369.462,314.169 370.138,314.136C371.017,314.094 371.899,314.052 372.77,314.008C373.523,313.97 374.265,313.929 375.011,313.89C376.354,313.819 377.687,313.746 379.011,313.671C379.938,313.618 380.867,313.566 381.784,313.512C382.399,313.475 383.005,313.437 383.616,313.399C384.507,313.344 385.399,313.29 386.28,313.233C386.908,313.193 387.527,313.151 388.15,313.109C388.999,313.053 389.849,312.996 390.69,312.938C391.314,312.895 391.931,312.85 392.55,312.806C393.386,312.746 394.222,312.686 395.049,312.625C395.646,312.581 396.239,312.535 396.831,312.49C397.668,312.426 398.501,312.361 399.328,312.295C399.904,312.249 400.476,312.202 401.047,312.156C401.885,312.087 402.718,312.017 403.547,311.946C404.092,311.899 404.636,311.852 405.177,311.805C406.03,311.73 406.876,311.654 407.719,311.577C408.22,311.531 408.722,311.485 409.219,311.439C410.107,311.356 410.986,311.27 411.862,311.185C412.304,311.142 412.749,311.099 413.188,311.055C414.135,310.96 415.072,310.863 416.005,310.765C416.363,310.727 416.725,310.691 417.081,310.653C418.218,310.532 419.343,310.408 420.459,310.282C420.598,310.266 420.741,310.251 420.88,310.235C423.464,309.941 425.99,309.635 428.458,309.317C428.557,309.304 428.654,309.291 428.753,309.278C429.857,309.135 430.951,308.989 432.032,308.841C432.282,308.807 432.527,308.771 432.776,308.737C433.707,308.608 434.632,308.477 435.546,308.344C435.837,308.302 436.124,308.258 436.413,308.216C437.273,308.089 438.127,307.96 438.97,307.83C439.283,307.781 439.594,307.732 439.905,307.683C440.717,307.555 441.522,307.426 442.319,307.295C442.636,307.243 442.951,307.19 443.266,307.138C444.054,307.006 444.834,306.873 445.608,306.738C445.909,306.685 446.21,306.633 446.509,306.58C447.296,306.44 448.074,306.299 448.845,306.155C449.115,306.105 449.387,306.055 449.655,306.004C450.465,305.851 451.265,305.696 452.058,305.539C452.273,305.496 452.491,305.454 452.706,305.412C453.579,305.237 454.44,305.06 455.292,304.88C455.418,304.853 455.548,304.827 455.674,304.801C459.652,303.956 463.394,303.058 466.896,302.106C467.015,302.074 467.13,302.041 467.248,302.008C467.985,301.806 468.713,301.602 469.428,301.395C469.603,301.344 469.774,301.293 469.948,301.242C470.599,301.051 471.243,300.859 471.876,300.664C472.076,300.603 472.272,300.54 472.47,300.479C473.07,300.291 473.663,300.102 474.246,299.91C474.451,299.843 474.654,299.775 474.857,299.707C475.426,299.517 475.987,299.325 476.539,299.131C476.738,299.061 476.936,298.992 477.133,298.921C477.683,298.725 478.223,298.526 478.757,298.326C478.941,298.257 479.126,298.188 479.308,298.119C479.856,297.91 480.393,297.698 480.923,297.485C481.077,297.423 481.233,297.362 481.385,297.3C481.956,297.067 482.513,296.831 483.063,296.594C483.164,296.55 483.269,296.507 483.369,296.463C485.344,295.599 487.182,294.703 488.879,293.775C488.924,293.75 488.967,293.725 489.012,293.7C489.515,293.423 490.007,293.143 490.485,292.86C490.611,292.786 490.73,292.71 490.854,292.635C491.245,292.399 491.631,292.162 492.004,291.923C492.156,291.826 492.302,291.727 492.451,291.629C492.677,291.48 492.91,291.333 493.129,291.183L493.552,292.169C497.023,301.602 494.277,312.164 486.549,317.732Z" style="fill-rule:nonzero;"/>
            </g>
        </g>
    </g>
    <g id="pants" transform="matrix(1.72943,0,0,1.17898,-123.589,-452.476)">
        <path d="M159.824,682.901L263.14,682.496C267.555,750.626 294.499,954.462 303.111,995.44L249.929,995.118C242.247,913.899 211.757,739.237 211.7,739.651C209.804,753.454 188.148,927.533 182.567,995.086L128.802,995.182C128.845,981.364 159.824,682.901 159.824,682.901Z" style="fill:white;fill-rule:nonzero;stroke:black;stroke-width:1.89px;stroke-linecap:butt;stroke-linejoin:miter;stroke-miterlimit:4;"/>
    </g>
    <g id="t-shirt" transform="matrix(0.327485,0,0,0.327485,38.1881,189.406)">
        <path d="M304.08,-439.687C304.08,-439.687 80.317,-181.255 19.459,-110.968C15.622,-106.536 13.865,-100.674 14.632,-94.862C15.399,-89.051 18.616,-83.845 23.472,-80.56C65.334,-52.24 164.394,14.775 203.092,40.954C212.151,47.083 224.362,45.471 231.521,37.203C244.85,21.809 266.249,-2.905 282.877,-22.11C286.645,-26.462 292.72,-28.014 298.114,-26.003C303.508,-23.993 307.085,-18.842 307.085,-13.086C307.085,97.48 307.085,423.978 307.085,522.906C307.085,530.526 310.112,537.834 315.5,543.222C320.888,548.61 328.196,551.637 335.816,551.637C444.513,551.637 829.426,551.637 928.589,551.637C941.535,551.637 952.03,541.142 952.03,528.197C952.03,434.467 952.03,86.599 952.03,-19.248C952.03,-24.034 955.004,-28.317 959.49,-29.989C963.975,-31.661 969.027,-30.37 972.16,-26.751C988.902,-7.414 1012.26,19.563 1026.76,36.312C1034.36,45.089 1047.32,46.799 1056.93,40.295C1095.14,14.445 1188.39,-48.64 1231.79,-78C1237.61,-81.935 1241.46,-88.17 1242.38,-95.131C1243.3,-102.093 1241.2,-109.115 1236.6,-114.424C1171.77,-189.322 955.034,-439.687 955.034,-439.687L952.03,-437.662L952.03,-437.662C952.03,-438.199 951.816,-438.714 951.437,-439.094C951.057,-439.473 950.542,-439.687 950.005,-439.687C939.234,-439.687 888.209,-439.687 863.242,-439.687C854.852,-439.686 847.142,-435.073 843.175,-427.681C799.045,-346.622 719.855,-292.592 629.557,-292.592C541.817,-292.592 464.507,-343.605 419.671,-420.841C413.059,-432.414 400.753,-439.557 387.424,-439.557C357.268,-439.687 307.085,-439.687 307.085,-439.687L307.085,-437.662L304.08,-439.687Z" style="fill:white;fill-rule:nonzero;stroke:black;stroke-width:8.68px;stroke-linecap:square;stroke-linejoin:bevel;stroke-miterlimit:3.5;"/>
    </g>
    <g id="jacket" transform="matrix(0.392201,0,0,0.478664,10.7819,29.3629)">
        <path id="jacket-path" d="M156.177,454.919C130.749,472.185 94.823,474.496 66.417,460.695C54.69,454.998 42.004,448.834 29.869,442.938C-2.703,427.113 -15.787,393.885 -0.645,365.446C12.823,340.151 26.378,314.692 26.378,314.692C26.378,314.692 87.972,227.292 100.438,209.603C101.891,207.541 103.568,205.59 105.449,203.774C126.755,183.196 261.334,53.221 261.334,53.221C261.334,53.221 278.6,46.291 290.046,41.696C296.646,39.047 303.515,36.872 310.574,35.197C335.404,29.302 395.213,15.105 395.213,15.105L434.964,8.077L457.907,3.991L500.122,7.47L524.38,19.134L599.344,28.766C599.344,28.766 632.87,27.136 648.553,26.373C653.813,26.117 659.024,25.403 664.1,24.244C681.926,20.172 724.786,10.381 724.786,10.381L772.317,5.45L809.979,19.996L889.816,42.393L926.345,57.126L1035.75,145.073L1137.54,247.045C1137.54,247.045 1163.46,303.412 1179.09,337.408C1186.41,353.327 1184.51,371.11 1173.92,385.742C1155.63,411.012 1126.14,451.76 1105.03,480.929C1098.74,489.613 1088.1,495.58 1075.94,497.234C1063.79,498.889 1051.36,496.062 1041.99,489.51C1024.72,477.436 1008.03,465.773 1008.03,465.773L958.887,422.723L918.634,356.408C918.634,356.408 915.463,353.636 910.524,349.319C902.537,342.339 889.975,340.363 879.402,344.424C868.829,348.486 862.647,357.661 864.087,367.156C876.535,449.243 896.804,582.895 904.03,630.545C905.788,642.137 904.728,653.899 900.912,665.153C897.871,674.119 894.004,685.523 890.254,696.583C882.093,720.647 856.103,737.762 825.666,739.116C809.264,739.846 794.002,740.525 788.943,740.75C787.768,740.802 786.592,740.819 785.417,740.801C779.099,740.702 756.635,740.349 731.366,739.952C708.529,739.594 686.894,731.499 671.607,717.594C656.32,703.688 648.747,685.214 650.69,666.567C653.736,637.329 656.712,608.772 657.432,601.856C657.542,600.803 657.619,599.747 657.664,598.69C658.417,580.798 665.293,417.504 665.293,417.504L677.175,307.83L712.867,233.309L773.281,161.202L808.041,115.737C808.041,115.737 810.603,95.492 812.481,80.653C813.758,70.565 812.027,60.373 807.437,50.954C801.546,38.867 794.07,23.527 794.07,23.527C794.07,23.527 787.427,20.712 780.701,17.864C771.734,14.066 761.437,12.931 751.563,14.654C731.721,18.115 699.582,23.721 699.582,23.721L625.376,36.092L541.312,33.05L498.508,18.406L438.886,15.118L409.396,31.92C409.396,31.92 401.862,63.132 398.471,77.182C397.399,81.625 397.27,86.186 398.092,90.665C398.947,95.329 400.103,101.629 401.087,106.997C402.397,114.137 406.053,120.85 411.665,126.417C421.543,136.215 437.196,151.742 443.324,157.82C445.042,159.524 446.591,161.338 447.957,163.243C455.138,173.263 479.377,207.082 491.806,224.423C496.758,231.333 500.193,238.902 501.954,246.784C504.636,258.794 508.594,276.516 510.144,283.455C510.581,285.412 510.886,287.388 511.057,289.373C511.916,299.309 514.666,331.13 515.344,338.983C515.446,340.159 515.508,341.337 515.529,342.516C515.79,357.132 517.583,457.396 517.583,457.396L512.631,552.147C512.631,552.147 513.419,598.207 513.675,613.186C513.728,616.278 513.502,619.369 512.998,622.434C511.32,632.654 507.347,656.839 506.301,663.209C506.13,664.249 505.996,665.292 505.898,666.338C505.615,669.355 504.954,676.414 504.169,684.805C501.723,710.927 475.416,731.232 443.446,731.674C400.03,732.273 347.395,733.001 347.395,733.001L317.709,733.463C317.709,733.463 305.11,720.031 296.092,710.418C290.292,704.235 287.12,696.667 287.06,688.869C286.899,668.23 286.588,628.246 286.588,628.246L289.053,548.617L303.49,453.873C303.49,453.873 316.508,386.597 323.699,349.432C324.376,345.932 322.261,342.467 318.437,340.812C314.613,339.157 309.928,339.679 306.782,342.11C306.777,342.114 306.774,342.117 306.774,342.117C306.774,342.117 280.191,367.197 270.428,376.408C268.071,378.632 265.496,380.693 262.729,382.572C247.644,392.815 194.666,428.786 156.177,454.919Z" style="fill:white;stroke:rgb(8,6,5);stroke-width:11.43px;"/>
    </g>
</svg>
